<svg width="64" height="64" viewBox="0 0 64 64" fill="none" xmlns="http://www.w3.org/2000/svg">
<path fill-rule="evenodd" clip-rule="evenodd" d="M58.6668 10.6666C58.6668 15.0849 55.0851 18.6666 50.6668 18.6666C47.1836 18.6666 44.2203 16.4405 43.122 13.3333H18.6668C14.2486 13.3333 10.6668 16.915 10.6668 21.3333V22.0247C10.6668 26.4429 14.2486 30.0247 18.6668 30.0247H45.6792C52.8521 30.0247 58.6668 35.8394 58.6668 43.0123C58.6668 50.1852 52.8521 56 45.6792 56H41.1048L41.8859 56.781C42.9273 57.8224 42.9273 59.5108 41.8859 60.5522C40.8445 61.5936 39.156 61.5936 38.1146 60.5522L30.8957 53.3333L38.1146 46.1143C39.156 45.0729 40.8445 45.0729 41.8859 46.1143C42.9273 47.1557 42.9273 48.8442 41.8859 49.8856L41.1048 50.6666H45.6792C49.9065 50.6666 53.3335 47.2397 53.3335 43.0123C53.3335 38.7849 49.9065 35.358 45.6792 35.358H18.6668C11.303 35.358 5.3335 29.3884 5.3335 22.0247V21.3333C5.3335 13.9695 11.303 7.99996 18.6668 7.99996H43.122C44.2203 4.89278 47.1836 2.66663 50.6668 2.66663C55.0851 2.66663 58.6668 6.24835 58.6668 10.6666ZM13.3335 61.3333C17.7518 61.3333 21.3335 57.7516 21.3335 53.3333C21.3335 48.915 17.7518 45.3333 13.3335 45.3333C8.91522 45.3333 5.3335 48.915 5.3335 53.3333C5.3335 57.7516 8.91522 61.3333 13.3335 61.3333Z" fill="#7C7E92" fill-opacity="0.56"/>
</svg>
