<svg width="28" height="28" viewBox="0 0 28 28" fill="none" xmlns="http://www.w3.org/2000/svg">
<path fill-rule="evenodd" clip-rule="evenodd" d="M13 4C13 4.55228 13.4477 5 14 5C14.5523 5 15 4.55228 15 4V1C15 0.447715 14.5523 0 14 0C13.4477 0 13 0.447715 13 1V4ZM4 19.7914C4 14.2685 8.47715 9.79138 14 9.79138C19.5228 9.79138 24 14.2685 24 19.7914C24 20.5512 23.9154 21.2902 23.7555 22H4.2445C4.08456 21.2902 4 20.5512 4 19.7914ZM2.02854 20.625H1C0.447715 20.625 0 20.1773 0 19.625C0 19.0727 0.447715 18.625 1 18.625H2.05596C2.64242 12.5449 7.76609 7.79138 14 7.79138C20.2339 7.79138 25.3576 12.5449 25.944 18.625H27C27.5523 18.625 28 19.0727 28 19.625C28 20.1773 27.5523 20.625 27 20.625H25.9715C25.9082 21.5454 25.7411 22.4382 25.4813 23.2913L25.2655 24H2.73448L2.51869 23.2913C2.25893 22.4382 2.09177 21.5454 2.02854 20.625ZM2 26C1.44772 26 1 26.4477 1 27C1 27.5523 1.44772 28 2 28H26C26.5523 28 27 27.5523 27 27C27 26.4477 26.5523 26 26 26H2ZM13 12.7914C13 12.2391 13.4477 11.7914 14 11.7914C17.0294 11.7914 19.664 13.4756 21.0211 15.954C21.2863 16.4384 21.1087 17.0461 20.6242 17.3114C20.1398 17.5766 19.5321 17.399 19.2668 16.9146C18.2466 15.0513 16.2697 13.7914 14 13.7914C13.4477 13.7914 13 13.3437 13 12.7914ZM10 5C9.44771 5 9 4.55228 9 4V3C9 2.44772 9.44771 2 10 2C10.5523 2 11 2.44772 11 3V4C11 4.55228 10.5523 5 10 5ZM17 4C17 4.55228 17.4477 5 18 5C18.5523 5 19 4.55228 19 4V3C19 2.44772 18.5523 2 18 2C17.4477 2 17 2.44772 17 3V4Z" fill="#6ADA6F"/>
</svg>
